<?xml version="1.0" encoding="utf-8"?>
<!-- Svg Vector Icons : http://www.onlinewebfonts.com/icon -->
<!DOCTYPE svg PUBLIC "-//W3C//DTD SVG 1.1//EN" "http://www.w3.org/Graphics/SVG/1.1/DTD/svg11.dtd">
<svg version="1.1" xmlns="http://www.w3.org/2000/svg" xmlns:xlink="http://www.w3.org/1999/xlink" x="0px" y="0px" viewBox="0 0 1000 1000" enable-background="new 0 0 1000 1000" xml:space="preserve">
<metadata> Svg Vector Icons : http://www.onlinewebfonts.com/icon </metadata>
<g><g transform="translate(0.000000,511.000000) scale(0.100000,-0.100000)"><path d="M1665.9,4996.5c-416.4-63.2-736.9-333.6-896.1-754.4l-50.1-128.6l-6.5-3913.6c-4.4-2799.5,2.2-3955.1,17.4-4059.7c74.1-444.8,453.5-830.7,896.1-911.4c82.8-15.3,813.2-21.8,2147.6-17.4l2025.5,6.5l130.8,52.3c281.3,113.4,497.1,300.9,619.2,545.1c130.8,255.1,133,303,128.6,1497.8l-6.5,1081.4l-298.7-257.3L6072.3-2120v-148.3v-148.3l-2370,4.4l-2372.2,6.5V199.8v2605.5l1210.1,6.5l1212.2,4.4l150.4,152.6l150.4,152.6h-1367H1319.2v399c0,449.1,21.8,562.5,130.8,695.5c34.9,43.6,106.8,100.3,159.2,124.3c93.8,45.8,111.2,45.8,2086.5,45.8c1975.4,0,1992.8,0,2086.5-45.8c181-87.2,290-287.8,290-536.4v-115.6h305.2h305.2v148.3c-2.2,527.6-300.9,959.3-782.7,1120.7l-143.9,50.1l-1984.1,2.2C2681.9,5011.8,1733.5,5005.2,1665.9,4996.5z M6067.9-3260.3c-6.5-505.8-8.7-547.2-54.5-627.9c-54.5-102.5-139.5-185.3-246.4-242c-71.9-39.3-165.7-41.4-2071.3-41.4h-1995l-87.2,48c-102.5,54.5-185.3,139.5-242,246.4c-37.1,67.6-41.4,139.5-48,617l-8.7,538.5h2380.9h2380.9L6067.9-3260.3z"/><path d="M3564.9-3112c-106.8-56.7-181-202.8-167.9-327c26.2-235.5,259.5-366.3,479.7-268.2c130.8,56.7,189.7,152.6,189.7,298.7C4066.4-3144.7,3798.2-2985.6,3564.9-3112z"/><path d="M3063.5,3862.7c-24-24-43.6-71.9-43.6-109c0-37.1,19.6-85,43.6-109c41.4-41.4,71.9-43.6,627.9-43.6c667.2,0,680.3,2.2,680.3,152.6c0,150.4-13.1,152.6-680.3,152.6C3135.4,3906.3,3104.9,3904.2,3063.5,3862.7z"/><path d="M5265.6,3250.1c-202.8-34.9-536.3-161.3-721.7-272.5c-307.4-187.5-595.2-488.4-778.4-815.4c-104.7-185.3-215.9-549.4-244.2-795.8C3445,720.9,3676.1,62.5,4140.5-401.9C4424-683.2,4775-877.2,5163.1-964.4l222.4-50.1l10.9-385.9l10.9-388.1l61-52.3c45.8-39.2,87.2-52.3,159.2-52.3c93.7,0,109,10.9,601.7,436.1l508,436.1h316.1c174.4,2.2,392.5,15.3,484,32.7c830.7,146.1,1476.1,741.3,1700.6,1561.1c43.6,159.2,50.1,233.3,50.1,564.7c0,331.4-6.5,403.4-50.1,556C9024.4,2439,8455.3,3008.1,7718.4,3213c-167.9,45.8-211.5,48-1253.7,52.3C5871.7,3267.5,5331,3261,5265.6,3250.1z M7609.4,2766.1c464.4-137.4,854.7-466.6,1066.2-898.3c124.3-252.9,152.6-396.8,154.8-741.3c0-259.5-6.5-329.2-50.1-468.8c-150.4-475.3-447-830.7-865.6-1037.8c-296.5-143.9-396.8-165.7-872.1-176.6c-226.8-4.4-436.1-13.1-464.4-19.6c-26.2-4.3-198.4-139.5-381.6-296.5l-331.4-285.6l-10.9,226.7c-6.5,124.3-21.8,248.6-37.1,272.5C5780.1-596,5706-572,5455.3-543.6c-451.3,52.3-830.7,259.5-1107.6,606.1c-252.9,320.5-368.5,649.7-368.5,1064c0,710.8,399,1312.5,1048.7,1574.2c263.8,106.8,346.7,113.4,1436.8,106.8C7358.6,2803.1,7493.8,2798.8,7609.4,2766.1z"/><path d="M4945.1,1747.8c-194-45.8-311.8-181-311.8-361.9c0-157,71.9-239.8,283.4-322.7c163.5-65.4,187.5-89.4,165.7-172.2c-21.8-89.4-174.4-128.7-331.4-82.9l-69.8,19.6l-13.1-109c-8.7-61-6.5-119.9,4.4-130.8s95.9-19.6,191.9-19.6c344.5,0,532,135.2,532,383.7c0,152.6-45.8,218-200.6,290c-76.3,37.1-159.2,72-187.5,80.7c-67.6,19.6-100.3,85-69.8,141.7c34.9,65.4,117.7,89.4,248.5,74.1c109-13.1,115.6-10.9,128.6,37.1c32.7,119.9,19.6,165.7-52.3,181C5176.2,1774,5034.5,1769.7,4945.1,1747.8z"/><path d="M7648.6,1739.1c-202.8-65.4-307.4-213.7-279.1-403.4c19.6-124.3,93.7-198.4,261.6-261.6c215.8-80.7,250.7-135.2,150.4-235.5c-50.2-50.1-67.6-54.5-178.8-43.6c-69.8,6.5-141.7,17.4-163.5,26.2c-34.9,15.3-39.2,4.4-32.7-111.2l6.5-128.6l194.1-6.5c172.2-4.4,207.1,0,309.6,50.1c178.8,87.2,261.6,261.6,205,433.9c-30.5,93.8-117.7,161.3-287.8,228.9c-146.1,58.9-178.8,91.6-161.3,163.5c17.4,74.1,130.8,109,272.5,82.9l111.2-19.6v113.4c0,111.2-2.2,115.5-67.6,128.6C7884.1,1776.2,7751.1,1769.7,7648.6,1739.1z"/><path d="M5767,1743.5c0-4.4-39.2-257.3-87.2-562.5c-48-305.2-87.2-562.5-87.2-571.3c0-10.9,61.1-17.4,137.4-17.4h139.5l37.1,300.9c63.2,516.7,61,501.5,80.7,440.4c8.7-30.5,63.2-209.3,119.9-399l102.5-344.5l154.8,6.5l154.8,6.5L6637,989.1c65.4,213.7,122.1,383.7,124.3,381.6c2.2-2.2,26.2-157,50.2-342.3c65.4-481.9,43.6-436.1,209.3-436.1c133,0,141.7,2.2,139.6,50.1c0,26.2-37.1,283.4-80.7,571.2l-80.7,523.3h-185.3h-183.2l-117.7-370.7c-65.4-202.8-124.3-385.9-128.7-403.3c-6.5-17.4-28.3,37.1-52.3,119.9c-21.8,85-78.5,266-124.3,403.4l-85,250.7l-176.6,6.5C5847.7,1747.8,5767,1745.7,5767,1743.5z"/></g></g>
</svg>